<svg width="230.89701538085936px" height="82.42398681640626px" xmlns="http://www.w3.org/2000/svg" viewBox="134.55149230957034 33.78800659179687 230.89701538085936 82.42398681640626" style="background: rgba(0, 0, 0, 0);" preserveAspectRatio="xMidYMid"><defs><filter id="editing-jagged" x="-100%" y="-100%" width="300%" height="300%"><feTurbulence result="turb" baseFrequency="0.1" numOctaves="1" seed="1"></feTurbulence><feDisplacementMap in="SourceGraphic" in2="turb" scale="10"></feDisplacementMap></filter></defs><g filter="url(#editing-jagged)"><g transform="translate(127.16762828826904, 98.4900016784668)"><path d="M19.90-46.02L19.90-46.02Q25.92-46.02 28.96-43.01L28.96-43.01L28.96-43.01Q32-40 33.34-37.31L33.34-37.31L33.34-37.31Q33.60-36.67 33.86-35.97L33.86-35.97L33.86-35.97Q34.11-35.26 34.30-34.75L34.30-34.75L34.30-34.75Q34.37-34.62 34.37-34.43L34.37-34.43L34.37-34.43Q34.37-34.24 34.21-34.11L34.21-34.11L34.21-34.11Q34.05-33.98 33.79-33.89L33.79-33.89L33.79-33.89Q33.54-33.79 33.22-33.60L33.22-33.60L31.74-32.83L31.74-32.83Q29.50-31.62 28.61-31.23L28.61-31.23L28.61-31.23Q27.20-30.40 26.30-29.76L26.30-29.76L25.09-28.93L25.09-28.93Q24.70-28.61 23.87-28.10L23.87-28.10L23.87-28.10Q23.62-27.90 23.36-27.90L23.36-27.90L23.36-27.90Q22.98-27.78 22.85-27.78L22.85-27.78L22.85-27.78Q22.53-27.78 22.30-28.22L22.30-28.22L22.30-28.22Q22.08-28.67 21.89-28.93L21.89-28.93L21.89-28.93Q21.76-29.12 21.38-29.70L21.38-29.70L21.38-29.70Q20.99-30.27 20.45-30.69L20.45-30.69L20.45-30.69Q19.90-31.10 19.20-31.10L19.20-31.10L19.20-31.10Q17.28-31.10 16.19-28.13L16.19-28.13L16.19-28.13Q15.10-25.15 15.10-21.89L15.10-21.89L15.10-21.89Q15.10-18.88 15.26-17.06L15.26-17.06L15.26-17.06Q15.42-15.23 16.29-13.70L16.29-13.70L16.29-13.70Q17.15-12.16 19.14-12.16L19.14-12.16L19.14-12.16Q21.70-12.16 22.72-15.36L22.72-15.36L22.72-15.36Q23.17-16.70 23.17-18.56L23.17-18.56L21.89-18.82L21.89-18.82Q20.35-19.07 19.65-19.14L19.65-19.14L19.65-19.14Q18.43-19.26 18.43-20.03L18.43-20.03L18.43-20.03Q18.43-20.48 18.94-22.53L18.94-22.53L18.94-22.53Q19.26-23.55 19.58-23.74L19.58-23.74L19.58-23.74Q19.90-23.94 20.54-23.87L20.54-23.87L20.54-23.87Q20.86-23.81 22.05-23.65L22.05-23.65L22.05-23.65Q23.23-23.49 25.79-23.23L25.79-23.23L29.31-22.72L29.31-22.72Q32.90-22.21 34.11-22.14L34.11-22.14L34.11-22.14Q35.20-22.08 35.58-20.99L35.58-20.99L35.58-20.99Q35.71-20.35 35.65-19.90L35.65-19.90L35.65-19.90Q35.20-11.97 32.67-7.33L32.67-7.33L32.67-7.33Q30.14-2.69 26.82-0.90L26.82-0.90L26.82-0.90Q23.49 0.90 20.22 0.90L20.22 0.90L20.22 0.90Q17.28 0.90 13.22-0.96L13.22-0.96L13.22-0.96Q9.15-2.82 5.89-7.87L5.89-7.87L5.89-7.87Q2.62-12.93 2.62-21.63L2.62-21.63L2.62-21.63Q2.62-31.74 5.70-37.15L5.70-37.15L5.70-37.15Q8.77-42.56 12.61-44.29L12.61-44.29L12.61-44.29Q16.45-46.02 19.90-46.02L19.90-46.02ZM54.34-44.67L54.34-19.07L54.34-19.07Q54.34-17.66 54.50-16.64L54.50-16.64L54.50-16.64Q54.66-15.62 55.46-14.69L55.46-14.69L55.46-14.69Q56.26-13.76 58.05-13.76L58.05-13.76L58.05-13.76Q60.54-13.76 61.44-15.65L61.44-15.65L61.44-15.65Q62.34-17.54 62.34-19.78L62.34-19.78L62.40-22.98L62.40-22.98Q62.59-30.08 62.59-30.91L62.59-30.91L62.59-30.91Q62.59-32.70 62.53-33.34L62.53-33.34L62.53-33.34Q62.53-35.58 62.27-40.19L62.27-40.19L62.14-43.71L62.14-43.71Q62.14-44.86 62.46-45.31L62.46-45.31L62.46-45.31Q62.78-45.76 63.68-45.76L63.68-45.76L71.81-45.76L72.77-45.82L72.77-45.82Q73.41-45.82 73.82-45.44L73.82-45.44L73.82-45.44Q74.24-45.06 74.37-43.90L74.37-43.90L74.37-43.90Q74.50-42.82 74.50-36.35L74.50-36.35L74.43-22.59L74.43-22.59Q74.43-19.01 73.28-13.98L73.28-13.98L73.28-13.98Q72.13-8.96 68.48-4.67L68.48-4.67L68.48-4.67Q64.83-0.38 58.05-0.38L58.05-0.38L58.05-0.38Q42.82-0.38 41.66-14.98L41.66-14.98L41.66-14.98Q41.60-15.62 41.60-17.54L41.60-17.54L41.60-17.54Q41.60-19.52 41.73-24.51L41.73-24.51L41.73-24.51Q41.92-30.27 41.86-33.09L41.86-33.09L41.86-33.09Q41.86-36.93 41.73-41.15L41.73-41.15L41.73-41.15Q41.66-42.37 41.66-43.65L41.66-43.65L41.66-43.65Q41.66-43.90 41.63-44.61L41.63-44.61L41.63-44.61Q41.60-45.31 41.89-45.63L41.89-45.63L41.89-45.63Q42.18-45.95 42.94-45.95L42.94-45.95L46.66-45.89L46.66-45.89Q47.94-45.89 48.51-45.95L48.51-45.95L48.51-45.95Q49.92-46.08 50.82-46.08L50.82-46.08L53.38-46.02L53.38-46.02Q53.95-46.02 54.11-45.73L54.11-45.73L54.11-45.73Q54.27-45.44 54.34-44.67L54.34-44.67ZM98.11-24.58L98.11-24.58Q101.70-24.19 104.45-22.46L104.45-22.46L104.45-22.46Q110.85-18.43 110.85-8.96L110.85-8.96L110.85-8.96Q110.85-3.33 106.53-1.47L106.53-1.47L106.53-1.47Q102.21 0.38 97.47 0.38L97.47 0.38L97.47 0.38Q94.59 0.38 88.32 0.64L88.32 0.64L88.32 0.64Q84.93 0.83 83.52 0.83L83.52 0.83L83.52 0.83Q82.50 0.83 82.18 0.48L82.18 0.48L82.18 0.48Q81.86 0.13 81.86-0.51L81.86-0.51L81.86-3.33L81.98-6.66L81.98-6.66Q82.24-11.52 82.24-13.89L82.24-13.89L82.11-21.89L82.05-29.44L82.05-29.44Q82.05-31.23 82.43-35.33L82.43-35.33L82.43-35.33Q82.69-38.27 82.69-38.85L82.69-38.85L82.69-38.85Q82.69-39.87 82.56-42.30L82.56-42.30L82.43-44.67L82.43-44.67Q82.43-45.50 83.58-45.50L83.58-45.50L84.54-45.44L84.54-45.44Q85.06-45.44 85.98-45.57L85.98-45.57L85.98-45.57Q86.91-45.70 87.62-45.70L87.62-45.70L87.62-45.70Q88.58-45.70 89.09-45.63L89.09-45.63L89.09-45.63Q91.39-45.50 96.45-45.50L96.45-45.50L96.45-45.50Q108.10-45.50 108.10-34.30L108.10-34.30L108.10-34.30Q108.10-31.42 106.69-29.47L106.69-29.47L106.69-29.47Q105.28-27.52 103.10-26.37L103.10-26.37L103.10-26.37Q100.99-25.15 98.11-24.58L98.11-24.58ZM84.42-36.48L84.29-32.58L84.16-30.08L84.16-30.08Q84.16-29.38 84.38-29.25L84.38-29.25L84.38-29.25Q84.61-29.12 85.44-29.12L85.44-29.12L87.30-29.06L87.30-29.06Q89.09-28.93 89.92-28.93L89.92-28.93L92.03-28.99L92.03-28.99Q94.21-29.12 95.55-29.12L95.55-29.12L95.55-29.12Q101.63-29.12 101.63-33.98L101.63-33.98L101.63-33.98Q101.63-39.23 93.12-40.51L93.12-40.51L93.12-40.51Q90.75-40.90 87.87-40.90L87.87-40.90L87.87-40.90Q86.91-40.90 84.61-40.77L84.61-40.77L84.48-39.17L84.48-39.17Q84.42-38.21 84.42-36.48L84.42-36.48ZM95.62-3.78L95.62-3.78Q103.87-3.78 103.87-10.05L103.87-10.05L103.87-10.05Q103.87-13.38 102.50-15.42L102.50-15.42L102.50-15.42Q101.12-17.47 99.46-18.40L99.46-18.40L99.46-18.40Q97.79-19.33 96.70-19.46L96.70-19.46L96.70-19.46Q95.68-19.58 91.46-19.87L91.46-19.87L91.46-19.87Q87.23-20.16 85.38-20.22L85.38-20.22L85.38-20.22Q84.35-20.22 84.10-20.06L84.10-20.06L84.10-20.06Q83.84-19.90 83.84-19.46L83.84-19.46L83.84-19.46Q83.84-19.07 83.87-18.24L83.87-18.24L83.87-18.24Q83.90-17.41 83.90-15.68L83.90-15.68L83.90-15.68Q83.90-14.53 83.78-12.48L83.78-12.48L83.71-9.92L83.65-5.44L83.65-5.44Q83.65-4.80 83.81-4.61L83.81-4.61L83.81-4.61Q83.97-4.42 84.35-4.42L84.35-4.42L87.68-4.29L87.68-4.29Q88.64-4.29 90.94-4.03L90.94-4.03L90.94-4.03Q94.02-3.78 95.62-3.78L95.62-3.78ZM120.77-44.29L120.77-44.29Q122.18-44.29 125.25-44.42L125.25-44.42L128.70-44.54L135.68-44.48L138.88-44.42L138.88-44.42Q139.84-44.35 141.50-44.35L141.50-44.35L141.50-44.35Q142.21-44.35 142.43-44.16L142.43-44.16L142.43-44.16Q142.66-43.97 142.66-43.52L142.66-43.52L142.59-42.43L142.66-34.94L142.66-31.74L142.66-31.23L142.66-31.23Q142.66-30.72 142.50-30.56L142.50-30.56L142.50-30.56Q142.34-30.40 141.70-30.40L141.70-30.40L141.70-30.40Q140.67-30.40 138.82-30.59L138.82-30.59L138.82-30.59Q137.86-30.66 136.90-30.72L136.90-30.72L136.90-30.72Q135.94-30.78 135.23-30.78L135.23-30.78L128.45-30.78L128.45-30.78Q127.30-30.78 125.76-30.66L125.76-30.66L124.42-30.53L124.42-30.53Q124.35-30.14 124.35-29.38L124.35-29.38L124.35-27.26L124.35-27.26Q124.35-26.50 124.22-25.47L124.22-25.47L124.10-24.64L125.50-24.64L128.06-24.70L132.67-24.70L132.67-24.70Q134.27-24.70 136.45-24.83L136.45-24.83L136.45-24.83Q138.11-24.96 138.62-24.96L138.62-24.96L138.62-24.96Q139.39-24.96 139.65-24.77L139.65-24.77L139.65-24.77Q139.90-24.58 139.90-24.19L139.90-24.19L139.90-24.19Q139.90-23.36 139.58-22.34L139.58-22.34L139.58-22.34Q139.52-21.89 139.33-21.76L139.33-21.76L139.33-21.76Q139.14-21.63 138.69-21.63L138.69-21.63L136.13-21.70L130.18-21.82L126.78-21.82L126.78-21.82Q125.18-21.82 124.29-21.76L124.29-21.76L124.29-15.55L124.29-15.55Q124.29-10.94 124.10-8.06L124.10-8.06L124.10-8.06Q123.97-6.40 123.97-4.80L123.97-4.80L124.03-1.02L124.03-1.02Q124.03-0.32 123.71-0.19L123.71-0.19L123.71-0.19Q123.39-0.06 122.56-0.06L122.56-0.06L118.14-0.06L118.14-0.06Q117.57-0.13 117.44-0.45L117.44-0.45L117.44-0.45Q117.31-0.77 117.31-1.34L117.31-1.34L117.31-1.34Q117.31-1.92 117.31-2.30L117.31-2.30L117.31-2.30Q117.18-3.33 117.18-5.31L117.18-5.31L117.25-10.69L117.38-17.41L117.50-21.50L117.44-23.36L117.44-23.36Q117.25-24.83 117.25-27.14L117.25-27.14L117.25-27.14Q117.25-28.61 117.38-30.53L117.38-30.53L117.44-32.77L117.44-38.53L117.44-38.53Q117.44-39.17 117.57-40.83L117.57-40.83L117.70-43.14L117.70-43.39L117.70-43.39Q117.70-44.03 117.92-44.22L117.92-44.22L117.92-44.22Q118.14-44.42 118.59-44.42L118.59-44.42L118.59-44.42Q119.04-44.42 119.58-44.35L119.58-44.35L119.58-44.35Q120.13-44.29 120.77-44.29L120.77-44.29ZM173.76-42.56L173.76-41.86L173.76-41.86Q173.76-40.38 173.50-40.38L173.50-40.38L173.50-40.38Q173.12-40.38 172.64-40.48L172.64-40.48L172.64-40.48Q172.16-40.58 171.46-40.58L171.46-40.58L161.22-40.58L153.28-40.64L153.28-40.64Q152.90-40.64 150.40-40.45L150.40-40.45L148.93-40.32L148.80-38.59L148.80-38.59Q148.74-37.63 148.74-35.58L148.74-35.58L148.74-35.58Q148.74-34.56 148.86-32.90L148.86-32.90L148.86-32.90Q148.99-31.36 148.99-30.66L148.99-30.66L148.99-28.10L148.99-28.10Q148.99-27.07 149.06-26.50L149.06-26.50L149.06-26.50Q149.63-26.43 150.78-26.43L150.78-26.43L153.34-26.43L153.34-26.43Q153.73-26.43 154.88-26.56L154.88-26.56L154.88-26.56Q156.54-26.69 157.76-26.69L157.76-26.69L157.76-26.69Q158.27-26.69 161.34-26.50L161.34-26.50L162.75-26.43L162.75-26.43Q163.26-26.43 164.22-26.53L164.22-26.53L164.22-26.53Q165.18-26.62 166.08-26.62L166.08-26.62L168.19-26.56L168.19-26.56Q169.86-26.43 170.50-26.43L170.50-26.43L170.50-26.43Q171.20-26.43 171.46-26.50L171.46-26.50L171.84-26.56L171.84-26.56Q172.29-26.56 172.48-26.27L172.48-26.27L172.48-26.27Q172.67-25.98 172.61-25.73L172.61-25.73L172.61-25.73Q172.54-25.28 172.54-24.61L172.54-24.61L172.54-24.61Q172.54-23.94 172.48-23.42L172.48-23.42L172.48-23.42Q172.42-22.91 172.29-22.82L172.29-22.82L172.29-22.82Q172.16-22.72 171.52-22.72L171.52-22.72L168.96-22.98L168.96-22.98Q164.16-23.42 162.69-23.42L162.69-23.42L162.69-23.42Q157.25-23.42 154.69-23.23L154.69-23.23L154.69-23.23Q153.66-23.10 152.45-23.10L152.45-23.10L152.45-23.10Q151.23-23.10 150.91-23.10L150.91-23.10L150.91-23.10Q149.70-23.10 149.12-23.17L149.12-23.17L148.93-22.14L148.93-22.14Q148.80-20.99 148.80-20.10L148.80-20.10L148.80-20.10Q148.80-19.33 148.93-18.30L148.93-18.30L148.93-18.30Q149.06-17.28 149.06-16.51L149.06-16.51L149.12-8.90L149.06-5.70L149.06-5.70Q148.99-5.12 148.99-4.10L148.99-4.10L148.99-4.10Q149.82-4.03 151.42-4.03L151.42-4.03L151.42-4.03Q152.77-3.97 155.58-3.97L155.58-3.97L159.04-3.90L159.04-3.90Q160.13-3.84 162.37-3.84L162.37-3.84L162.37-3.84Q163.71-3.84 165.89-3.97L165.89-3.97L168.58-4.03L168.58-4.03Q170.11-4.03 171.14-3.97L171.14-3.97L171.14-3.97Q172.16-3.90 172.67-3.90L172.67-3.90L172.67-3.90Q173.18-3.90 173.28-3.71L173.28-3.71L173.28-3.71Q173.38-3.52 173.38-2.88L173.38-2.88L173.38-2.88Q173.38-2.43 173.31-1.95L173.31-1.95L173.31-1.95Q173.25-1.47 173.25-0.90L173.25-0.90L173.25-0.90Q173.25-0.45 172.93-0.29L172.93-0.29L172.93-0.29Q172.61-0.13 171.90-0.13L171.90-0.13L171.90-0.13Q171.20-0.13 170.75-0.19L170.75-0.19L170.75-0.19Q169.02-0.38 163.78-0.38L163.78-0.38L163.78-0.38Q160.58-0.38 159.17-0.32L159.17-0.32L159.17-0.32Q158.08-0.26 155.58-0.26L155.58-0.26L149.63-0.32L149.63-0.32Q148.61-0.38 147.20-0.38L147.20-0.38L147.20-0.38Q146.30-0.38 146.02-0.61L146.02-0.61L146.02-0.61Q145.73-0.83 145.73-1.34L145.73-1.34L145.79-2.37L145.79-2.37Q145.86-2.62 145.86-2.94L145.86-2.94L145.86-2.94Q145.86-3.14 145.79-3.87L145.79-3.87L145.79-3.87Q145.73-4.61 145.73-6.59L145.73-6.59L145.73-6.59Q145.73-8.51 145.60-12.86L145.60-12.86L145.60-12.86Q145.41-16.45 145.41-19.78L145.41-19.78L145.41-19.78Q145.41-21.18 145.73-27.90L145.73-27.90L145.73-27.90Q145.79-29.25 145.86-30.59L145.86-30.59L145.86-30.59Q145.92-31.94 145.92-33.02L145.92-33.02L145.92-33.02Q145.92-40.45 145.73-42.82L145.73-42.82L145.73-42.82Q145.54-44.35 147.58-44.35L147.58-44.35L147.58-44.35Q148.10-44.35 149.25-44.22L149.25-44.22L149.25-44.22Q150.27-44.10 150.78-44.10L150.78-44.10L154.82-44.22L154.82-44.22Q159.17-44.48 161.54-44.48L161.54-44.48L161.54-44.48Q164.29-44.48 169.28-44.35L169.28-44.35L169.28-44.35Q170.88-44.29 172.67-44.29L172.67-44.29L172.67-44.29Q173.44-44.29 173.63-43.90L173.63-43.90L173.63-43.90Q173.82-43.52 173.79-43.10L173.79-43.10L173.79-43.10Q173.76-42.69 173.76-42.56L173.76-42.56ZM193.22-45.12L193.22-45.12Q198.78-45.12 201.47-42.94L201.47-42.94L201.47-42.94Q204.16-40.77 204.29-40.64L204.29-40.64L204.29-40.64Q204.93-40.19 204.93-39.74L204.93-39.74L204.93-39.74Q204.93-39.49 204.67-39.23L204.67-39.23L204.67-39.23Q204.48-38.98 203.90-38.14L203.90-38.14L203.90-38.14Q203.33-37.31 203.01-37.31L203.01-37.31L203.01-37.31Q202.69-37.31 202.18-37.63L202.18-37.63L201.73-38.02L201.73-38.02Q196.86-41.54 193.41-41.54L193.41-41.54L193.41-41.54Q188.99-41.54 186.72-39.52L186.72-39.52L186.72-39.52Q184.45-37.50 184.45-34.43L184.45-34.43L184.45-34.43Q184.45-31.81 186.34-29.95L186.34-29.95L186.34-29.95Q188.22-28.10 191.30-26.43L191.30-26.43L191.30-26.43Q192.19-26.05 193.15-25.73L193.15-25.73L193.15-25.73Q196.35-24.51 198.75-23.14L198.75-23.14L198.75-23.14Q201.15-21.76 203.07-18.98L203.07-18.98L203.07-18.98Q204.99-16.19 204.99-11.97L204.99-11.97L204.99-11.97Q204.99-4.74 200.06-2.08L200.06-2.08L200.06-2.08Q195.14 0.58 189.06 0.58L189.06 0.58L189.06 0.58Q185.54 0.58 182.69-1.02L182.69-1.02L182.69-1.02Q179.84-2.62 178.62-3.84L178.62-3.84L178.62-3.84Q177.98-4.42 178.30-4.99L178.30-4.99L178.30-4.99Q178.37-5.12 178.85-6.02L178.85-6.02L178.85-6.02Q179.33-6.91 179.71-6.91L179.71-6.91L179.84-6.91L179.84-6.91Q180.03-6.91 180.19-6.82L180.19-6.82L180.19-6.82Q180.35-6.72 180.58-6.46L180.58-6.46L180.58-6.46Q180.80-6.21 181.12-5.89L181.12-5.89L181.12-5.89Q181.95-5.06 184.38-4L184.38-4L184.38-4Q186.82-2.94 188.42-2.94L188.42-2.94L188.42-2.94Q191.81-2.94 194.88-4.38L194.88-4.38L194.88-4.38Q197.95-5.82 197.95-10.50L197.95-10.50L197.95-10.50Q197.95-12.48 196.19-13.95L196.19-13.95L196.19-13.95Q194.43-15.42 190.72-17.41L190.72-17.41L187.97-18.94L187.97-18.94Q183.49-21.50 180.96-24.45L180.96-24.45L180.96-24.45Q178.43-27.39 178.43-32.19L178.43-32.19L178.43-32.19Q178.43-36.16 180.70-39.10L180.70-39.10L180.70-39.10Q182.98-42.05 186.40-43.58L186.40-43.58L186.40-43.58Q189.82-45.12 193.22-45.12L193.22-45.12ZM241.98-46.02L241.98-46.02Q242.75-45.95 242.91-45.63L242.91-45.63L242.91-45.63Q243.07-45.31 243.04-44.77L243.04-44.77L243.04-44.77Q243.01-44.22 243.01-43.97L243.01-43.97L243.01-43.97Q243.07-43.14 242.69-42.82L242.69-42.82L242.69-42.82Q242.30-42.50 241.47-42.50L241.47-42.50L241.47-42.50Q240.96-42.50 239.52-42.43L239.52-42.43L239.52-42.43Q238.08-42.37 236.03-42.43L236.03-42.43L235.78-42.43L235.65-30.85L235.58-19.58L235.58-19.58Q235.58-17.02 235.87-13.09L235.87-13.09L235.87-13.09Q236.16-9.15 236.22-8.13L236.22-8.13L236.22-8.13Q236.61-3.01 236.61-2.37L236.61-2.37L236.61-2.37Q236.67-1.09 236.03-0.70L236.03-0.70L236.03-0.70Q235.39-0.32 233.79-0.32L233.79-0.32L230.98-0.38L230.98-0.38Q230.66-0.38 220.48-0.58L220.48-0.58L216.51-0.64L216.51-0.64Q215.87-0.64 215.87-1.92L215.87-1.92L215.87-1.92Q215.87-2.37 216.00-3.65L216.00-3.65L216.00-3.65Q216.13-5.31 216.13-6.21L216.13-6.21L216.13-6.21Q216.00-7.87 216.00-12.03L216.00-12.03L216.00-12.03Q216.00-17.60 216.16-23.94L216.16-23.94L216.16-23.94Q216.32-30.27 216.58-33.47L216.58-33.47L216.58-33.47Q216.70-35.14 216.70-37.95L216.70-37.95L216.70-37.95Q216.70-41.09 216.51-42.69L216.51-42.69L215.36-42.75L210.05-42.62L210.05-42.62Q209.54-42.62 209.54-43.65L209.54-43.65L209.60-45.06L209.60-45.06Q209.60-45.57 209.76-45.73L209.76-45.73L209.76-45.73Q209.92-45.89 210.30-45.89L210.30-45.89L210.30-45.89Q210.56-45.89 210.94-45.82L210.94-45.82L210.94-45.82Q211.33-45.76 211.84-45.76L211.84-45.76L225.47-45.82L236.61-45.95L236.61-45.95Q239.23-46.02 241.98-46.02L241.98-46.02Z" fill="#444"></path></g></g><style>text {
  font-size: 64px;
  font-family: Arial Black;
  dominant-baseline: central;
  text-anchor: middle;
}</style></svg>