<svg width="201.44001464843748px" height="89.01201171875px" xmlns="http://www.w3.org/2000/svg" viewBox="149.27999267578127 30.493994140625 201.44001464843748 89.01201171875" style="background: rgb(145, 38, 35);" preserveAspectRatio="xMidYMid"><defs><filter id="editing-extrusion" x="-100%" y="-100%" width="300%" height="300%"><feFlood result="color1" flood-color="#a2b4bc"></feFlood><feConvolveMatrix order="8,8" divisor="1" kernelMatrix="1 0 0 0 0 0 0 0 0 1 0 0 0 0 0 0 0 0 1 0 0 0 0 0 0 0 0 1 0 0 0 0 0 0 0 0 1 0 0 0 0 0 0 0 0 1 0 0 0 0 0 0 0 0 1 0 0 0 0 0 0 0 0 1" in="SourceAlpha" result="extrude"></feConvolveMatrix><feComposite in="color1" in2="extrude" result="comp-extrude" operator="in"></feComposite><feOffset dx="4" dy="4" in="comp-extrude" result="offset-extrude"></feOffset><feMerge><feMergeNode in="offset-extrude"></feMergeNode><feMergeNode in="SourceGraphic"></feMergeNode></feMerge></filter></defs><g filter="url(#editing-extrusion)"><g transform="translate(143.6727225780487, 102.13000106811523)"><path d="M4.78-9.53L3.91-42.41L3.91-42.41Q3.84-44.69 4.67-46.59L4.67-46.59L4.67-46.59Q5.50-48.50 7.38-49.88L7.38-49.88L7.38-49.88Q9.25-51.25 12.25-52.03L12.25-52.03L12.25-52.03Q15.25-52.81 19.53-52.81L19.53-52.81L28.84-52.81L28.84-52.81Q29.91-52.81 30.47-52.70L30.47-52.70L30.47-52.70Q31.03-52.59 31.30-52.22L31.30-52.22L31.30-52.22Q31.56-51.84 31.59-51.16L31.59-51.16L31.59-51.16Q31.63-50.47 31.63-49.31L31.63-49.31L31.63-49.31Q31.63-48.38 31.53-47.81L31.53-47.81L31.53-47.81Q31.44-47.25 31.23-46.94L31.23-46.94L31.23-46.94Q31.03-46.63 30.67-46.53L30.67-46.53L30.67-46.53Q30.31-46.44 29.75-46.44L29.75-46.44L19.50-46.44L19.50-46.44Q18.34-46.47 17.48-46.36L17.48-46.36L17.48-46.36Q16.63-46.25 16.06-45.81L16.06-45.81L16.06-45.81Q15.50-45.38 15.22-44.55L15.22-44.55L15.22-44.55Q14.94-43.72 14.91-42.34L14.91-42.34L13.97-9.25L13.97-9.25Q13.94-7.94 14.17-7.06L14.17-7.06L14.17-7.06Q14.41-6.19 14.94-5.67L14.94-5.67L14.94-5.67Q15.47-5.16 16.33-4.94L16.33-4.94L16.33-4.94Q17.19-4.72 18.41-4.72L18.41-4.72L18.41-4.72Q19.63-4.72 20.48-4.94L20.48-4.94L20.48-4.94Q21.34-5.16 21.89-5.67L21.89-5.67L21.89-5.67Q22.44-6.19 22.66-7.06L22.66-7.06L22.66-7.06Q22.88-7.94 22.84-9.25L22.84-9.25L22.28-29.31L22.28-29.31Q22.25-30.25 22.47-30.83L22.47-30.83L22.47-30.83Q22.69-31.41 23.30-31.70L23.30-31.70L23.30-31.70Q23.91-32 24.97-32.09L24.97-32.09L24.97-32.09Q26.03-32.19 27.66-32.19L27.66-32.19L27.66-32.19Q29.28-32.19 30.28-32.09L30.28-32.09L30.28-32.09Q31.28-32 31.80-31.70L31.80-31.70L31.80-31.70Q32.31-31.41 32.47-30.83L32.47-30.83L32.47-30.83Q32.63-30.25 32.59-29.31L32.59-29.31L32.03-9.47L32.03-9.47Q31.97-7.44 31.19-5.64L31.19-5.64L31.19-5.64Q30.41-3.84 28.78-2.50L28.78-2.50L28.78-2.50Q27.16-1.16 24.59-0.39L24.59-0.39L24.59-0.39Q22.03 0.38 18.41 0.38L18.41 0.38L18.41 0.38Q14.78 0.38 12.22-0.41L12.22-0.41L12.22-0.41Q9.66-1.19 8.03-2.53L8.03-2.53L8.03-2.53Q6.41-3.88 5.63-5.69L5.63-5.69L5.63-5.69Q4.84-7.50 4.78-9.53L4.78-9.53ZM39.72-8.38L38.94-35.28L38.94-35.28Q38.94-35.94 39.08-36.39L39.08-36.39L39.08-36.39Q39.22-36.84 39.75-37.09L39.75-37.09L39.75-37.09Q40.28-37.34 41.30-37.45L41.30-37.45L41.30-37.45Q42.31-37.56 44-37.56L44-37.56L44-37.56Q45.69-37.56 46.70-37.45L46.70-37.45L46.70-37.45Q47.72-37.34 48.25-37.09L48.25-37.09L48.25-37.09Q48.78-36.84 48.92-36.39L48.92-36.39L48.92-36.39Q49.06-35.94 49.06-35.28L49.06-35.28L48.34-9.78L48.34-9.78Q48.31-8.41 48.66-7.53L48.66-7.53L48.66-7.53Q49-6.66 49.58-6.14L49.58-6.14L49.58-6.14Q50.16-5.63 50.88-5.42L50.88-5.42L50.88-5.42Q51.59-5.22 52.34-5.22L52.34-5.22L52.34-5.22Q53.69-5.22 54.75-5.80L54.75-5.80L54.75-5.80Q55.81-6.38 56.63-7.09L56.63-7.09L55.81-35.28L55.81-35.28Q55.81-35.94 55.95-36.39L55.95-36.39L55.95-36.39Q56.09-36.84 56.63-37.09L56.63-37.09L56.63-37.09Q57.16-37.34 58.17-37.45L58.17-37.45L58.17-37.45Q59.19-37.56 60.88-37.56L60.88-37.56L60.88-37.56Q62.56-37.56 63.58-37.45L63.58-37.45L63.58-37.45Q64.59-37.34 65.13-37.09L65.13-37.09L65.13-37.09Q65.66-36.84 65.80-36.39L65.80-36.39L65.80-36.39Q65.94-35.94 65.94-35.28L65.94-35.28L64.97-1.78L64.97-1.78Q64.97-1.19 64.81-0.84L64.81-0.84L64.81-0.84Q64.66-0.50 64.22-0.31L64.22-0.31L64.22-0.31Q63.78-0.13 62.98-0.06L62.98-0.06L62.98-0.06Q62.19 0 60.88 0L60.88 0L60.88 0Q59.66 0 58.92-0.06L58.92-0.06L58.92-0.06Q58.19-0.13 57.80-0.31L57.80-0.31L57.80-0.31Q57.41-0.50 57.27-0.84L57.27-0.84L57.27-0.84Q57.13-1.19 57.13-1.78L57.13-1.78L57.06-3.25L57.06-3.25Q56.38-2.63 55.50-1.97L55.50-1.97L55.50-1.97Q54.63-1.31 53.52-0.80L53.52-0.80L53.52-0.80Q52.41-0.28 51.08 0.05L51.08 0.05L51.08 0.05Q49.75 0.38 48.16 0.38L48.16 0.38L48.16 0.38Q44.28 0.38 42.06-1.84L42.06-1.84L42.06-1.84Q39.84-4.06 39.72-8.38L39.72-8.38ZM74.81-1.78L73.81-51.59L73.81-51.59Q73.81-52.25 73.95-52.70L73.95-52.70L73.95-52.70Q74.09-53.16 74.63-53.41L74.63-53.41L74.63-53.41Q75.16-53.66 76.17-53.77L76.17-53.77L76.17-53.77Q77.19-53.88 78.88-53.88L78.88-53.88L78.88-53.88Q80.56-53.88 81.58-53.77L81.58-53.77L81.58-53.77Q82.59-53.66 83.13-53.41L83.13-53.41L83.13-53.41Q83.66-53.16 83.80-52.70L83.80-52.70L83.80-52.70Q83.94-52.25 83.94-51.59L83.94-51.59L83.59-34.38L83.59-34.38Q84.13-34.94 84.86-35.58L84.86-35.58L84.86-35.58Q85.59-36.22 86.53-36.73L86.53-36.73L86.53-36.73Q87.47-37.25 88.61-37.59L88.61-37.59L88.61-37.59Q89.75-37.94 91.09-37.94L91.09-37.94L91.09-37.94Q93.28-37.94 95.06-37.17L95.06-37.17L95.06-37.17Q96.84-36.41 98.11-35.03L98.11-35.03L98.11-35.03Q99.38-33.66 100.03-31.75L100.03-31.75L100.03-31.75Q100.69-29.84 100.63-27.59L100.63-27.59L100.06-10L100.06-10Q99.97-7.19 99.31-5.20L99.31-5.20L99.31-5.20Q98.66-3.22 97.52-1.98L97.52-1.98L97.52-1.98Q96.38-0.75 94.75-0.19L94.75-0.19L94.75-0.19Q93.13 0.38 91.13 0.38L91.13 0.38L91.13 0.38Q89.66 0.38 88.41 0.08L88.41 0.08L88.41 0.08Q87.16-0.22 86.09-0.70L86.09-0.70L86.09-0.70Q85.03-1.19 84.17-1.78L84.17-1.78L84.17-1.78Q83.31-2.38 82.66-2.97L82.66-2.97L82.66-1.78L82.66-1.78Q82.66-1.19 82.52-0.84L82.52-0.84L82.52-0.84Q82.38-0.50 81.97-0.31L81.97-0.31L81.97-0.31Q81.56-0.13 80.83-0.06L80.83-0.06L80.83-0.06Q80.09 0 78.88 0L78.88 0L78.88 0Q77.56 0 76.77-0.06L76.77-0.06L76.77-0.06Q75.97-0.13 75.55-0.31L75.55-0.31L75.55-0.31Q75.13-0.50 74.97-0.84L74.97-0.84L74.97-0.84Q74.81-1.19 74.81-1.78L74.81-1.78ZM83.53-29.84L83.09-6.81L83.09-6.81Q83.81-6.19 84.86-5.70L84.86-5.70L84.86-5.70Q85.91-5.22 87.22-5.22L87.22-5.22L87.22-5.22Q89.22-5.22 90.36-6.45L90.36-6.45L90.36-6.45Q91.50-7.69 91.44-10L91.44-10L90.97-27.59L90.97-27.59Q90.94-28.66 90.64-29.41L90.64-29.41L90.64-29.41Q90.34-30.16 89.86-30.61L89.86-30.61L89.86-30.61Q89.38-31.06 88.75-31.27L88.75-31.27L88.75-31.27Q88.13-31.47 87.44-31.47L87.44-31.47L87.44-31.47Q86.34-31.47 85.30-30.97L85.30-30.97L85.30-30.97Q84.25-30.47 83.53-29.84L83.53-29.84ZM109.16-1.78L108.59-28.94L107.53-28.94L107.53-28.94Q106.72-28.94 106.27-29.06L106.27-29.06L106.27-29.06Q105.81-29.19 105.59-29.53L105.59-29.53L105.59-29.53Q105.38-29.88 105.33-30.48L105.33-30.48L105.33-30.48Q105.28-31.09 105.28-32.06L105.28-32.06L105.28-32.06Q105.28-32.94 105.33-33.48L105.33-33.48L105.33-33.48Q105.38-34.03 105.59-34.34L105.59-34.34L105.59-34.34Q105.81-34.66 106.27-34.77L106.27-34.77L106.27-34.77Q106.72-34.88 107.53-34.88L107.53-34.88L108.47-34.88L108.31-43.25L108.31-43.25Q108.28-45.28 108.84-47.19L108.84-47.19L108.84-47.19Q109.41-49.09 110.58-50.58L110.58-50.58L110.58-50.58Q111.75-52.06 113.56-52.97L113.56-52.97L113.56-52.97Q115.38-53.88 117.84-53.88L117.84-53.88L121.97-53.88L121.97-53.88Q122.78-53.88 123.23-53.77L123.23-53.77L123.23-53.77Q123.69-53.66 123.91-53.34L123.91-53.34L123.91-53.34Q124.13-53.03 124.17-52.48L124.17-52.48L124.17-52.48Q124.22-51.94 124.22-51.06L124.22-51.06L124.22-51.06Q124.22-50.28 124.19-49.73L124.19-49.73L124.19-49.73Q124.16-49.19 123.98-48.86L123.98-48.86L123.98-48.86Q123.81-48.53 123.47-48.39L123.47-48.39L123.47-48.39Q123.13-48.25 122.53-48.25L122.53-48.25L121.28-48.25L121.28-48.25Q120.81-48.25 120.28-48.08L120.28-48.08L120.28-48.08Q119.75-47.91 119.28-47.45L119.28-47.45L119.28-47.45Q118.81-47 118.50-46.20L118.50-46.20L118.50-46.20Q118.19-45.41 118.16-44.16L118.16-44.16L117.97-34.88L120.47-34.88L120.47-34.88Q121.28-34.88 121.73-34.77L121.73-34.77L121.73-34.77Q122.19-34.66 122.41-34.34L122.41-34.34L122.41-34.34Q122.63-34.03 122.67-33.48L122.67-33.48L122.67-33.48Q122.72-32.94 122.72-32.06L122.72-32.06L122.72-32.06Q122.72-31.09 122.67-30.48L122.67-30.48L122.67-30.48Q122.63-29.88 122.41-29.53L122.41-29.53L122.41-29.53Q122.19-29.19 121.73-29.06L121.73-29.06L121.73-29.06Q121.28-28.94 120.47-28.94L120.47-28.94L117.84-28.94L117.31-1.78L117.31-1.78Q117.31-1.19 117.16-0.84L117.16-0.84L117.16-0.84Q117-0.50 116.56-0.31L116.56-0.31L116.56-0.31Q116.13-0.13 115.33-0.06L115.33-0.06L115.33-0.06Q114.53 0 113.22 0L113.22 0L113.22 0Q111.91 0 111.11-0.06L111.11-0.06L111.11-0.06Q110.31-0.13 109.89-0.31L109.89-0.31L109.89-0.31Q109.47-0.50 109.31-0.84L109.31-0.84L109.31-0.84Q109.16-1.19 109.16-1.78L109.16-1.78ZM128.13-8.63L127.41-28.44L127.41-28.44Q127.31-30.94 128.45-32.73L128.45-32.73L128.45-32.73Q129.59-34.53 131.52-35.69L131.52-35.69L131.52-35.69Q133.44-36.84 135.92-37.39L135.92-37.39L135.92-37.39Q138.41-37.94 141-37.94L141-37.94L141-37.94Q143.47-37.94 145.84-37.39L145.84-37.39L145.84-37.39Q148.22-36.84 150.06-35.69L150.06-35.69L150.06-35.69Q151.91-34.53 152.98-32.73L152.98-32.73L152.98-32.73Q154.06-30.94 153.97-28.44L153.97-28.44L153.50-16.91L153.50-16.91Q153.47-16.31 153.30-15.97L153.30-15.97L153.30-15.97Q153.13-15.63 152.66-15.44L152.66-15.44L152.66-15.44Q152.19-15.25 151.33-15.19L151.33-15.19L151.33-15.19Q150.47-15.13 149.06-15.13L149.06-15.13L136.88-15.13L136.69-8.38L136.69-8.38Q136.66-7.19 136.92-6.38L136.92-6.38L136.92-6.38Q137.19-5.56 137.72-5.06L137.72-5.06L137.72-5.06Q138.25-4.56 139.03-4.34L139.03-4.34L139.03-4.34Q139.81-4.13 140.81-4.13L140.81-4.13L140.81-4.13Q142.81-4.13 143.75-5L143.75-5L143.75-5Q144.69-5.88 144.69-8.09L144.69-8.09L144.69-9.06L144.69-9.06Q144.69-9.66 144.84-10.05L144.84-10.05L144.84-10.05Q145-10.44 145.45-10.67L145.45-10.67L145.45-10.67Q145.91-10.91 146.75-11L146.75-11L146.75-11Q147.59-11.09 149-11.09L149-11.09L149-11.09Q150.38-11.09 151.22-11L151.22-11L151.22-11Q152.06-10.91 152.52-10.67L152.52-10.67L152.52-10.67Q152.97-10.44 153.11-10.06L153.11-10.06L153.11-10.06Q153.25-9.69 153.25-9.09L153.25-9.09L153.25-7.72L153.25-7.72Q153.25-5.25 152.19-3.69L152.19-3.69L152.19-3.69Q151.13-2.13 149.39-1.22L149.39-1.22L149.39-1.22Q147.66-0.31 145.42 0.03L145.42 0.03L145.42 0.03Q143.19 0.38 140.84 0.38L140.84 0.38L140.84 0.38Q138.47 0.38 136.22-0.08L136.22-0.08L136.22-0.08Q133.97-0.53 132.20-1.58L132.20-1.58L132.20-1.58Q130.44-2.63 129.33-4.34L129.33-4.34L129.33-4.34Q128.22-6.06 128.13-8.63L128.13-8.63ZM137.03-19.81L144.69-19.81L144.38-28.97L144.38-28.97Q144.34-30.28 144.08-31.09L144.08-31.09L144.08-31.09Q143.81-31.91 143.36-32.34L143.36-32.34L143.36-32.34Q142.91-32.78 142.30-32.92L142.30-32.92L142.30-32.92Q141.69-33.06 141-33.06L141-33.06L141-33.06Q140.22-33.06 139.56-32.92L139.56-32.92L139.56-32.92Q138.91-32.78 138.42-32.34L138.42-32.34L138.42-32.34Q137.94-31.91 137.64-31.09L137.64-31.09L137.64-31.09Q137.34-30.28 137.31-28.97L137.31-28.97L137.03-19.81ZM161.06-7.81L161.06-9.09L161.06-9.09Q161.06-9.69 161.22-10.06L161.22-10.06L161.22-10.06Q161.38-10.44 161.83-10.67L161.83-10.67L161.83-10.67Q162.28-10.91 163.13-11L163.13-11L163.13-11Q163.97-11.09 165.34-11.09L165.34-11.09L165.34-11.09Q166.75-11.09 167.59-11L167.59-11L167.59-11Q168.44-10.91 168.89-10.67L168.89-10.67L168.89-10.67Q169.34-10.44 169.50-10.05L169.50-10.05L169.50-10.05Q169.66-9.66 169.66-9.06L169.66-9.06L169.66-7.53L169.66-7.53Q169.66-5.63 170.77-4.88L170.77-4.88L170.77-4.88Q171.88-4.13 173.91-4.13L173.91-4.13L173.91-4.13Q175.94-4.13 176.73-4.98L176.73-4.98L176.73-4.98Q177.53-5.84 177.53-7.84L177.53-7.84L177.53-9.38L177.53-9.38Q177.53-10.16 177.33-10.72L177.33-10.72L177.33-10.72Q177.13-11.28 176.72-11.70L176.72-11.70L176.72-11.70Q176.31-12.13 175.67-12.44L175.67-12.44L175.67-12.44Q175.03-12.75 174.19-13.03L174.19-13.03L164.94-16.28L164.94-16.28Q162.72-17.06 161.64-18.84L161.64-18.84L161.64-18.84Q160.56-20.63 160.47-23.22L160.47-23.22L160.28-28.69L160.28-28.69Q160.19-31.19 161.31-32.94L161.31-32.94L161.31-32.94Q162.44-34.69 164.34-35.80L164.34-35.80L164.34-35.80Q166.25-36.91 168.72-37.42L168.72-37.42L168.72-37.42Q171.19-37.94 173.78-37.94L173.78-37.94L173.78-37.94Q176.31-37.94 178.72-37.50L178.72-37.50L178.72-37.50Q181.13-37.06 182.98-36.05L182.98-36.05L182.98-36.05Q184.84-35.03 185.92-33.36L185.92-33.36L185.92-33.36Q187-31.69 186.91-29.19L186.91-29.19L186.66-22.63L186.66-22.63Q186.63-22.03 186.45-21.69L186.45-21.69L186.45-21.69Q186.28-21.34 185.81-21.16L185.81-21.16L185.81-21.16Q185.34-20.97 184.48-20.91L184.48-20.91L184.48-20.91Q183.63-20.84 182.22-20.84L182.22-20.84L182.22-20.84Q180.69-20.84 179.77-20.91L179.77-20.91L179.77-20.91Q178.84-20.97 178.34-21.16L178.34-21.16L178.34-21.16Q177.84-21.34 177.67-21.69L177.67-21.69L177.67-21.69Q177.50-22.03 177.50-22.63L177.50-22.63L177.28-29.72L177.28-29.72Q177.25-30.75 176.98-31.41L176.98-31.41L176.98-31.41Q176.72-32.06 176.27-32.44L176.27-32.44L176.27-32.44Q175.81-32.81 175.19-32.94L175.19-32.94L175.19-32.94Q174.56-33.06 173.78-33.06L173.78-33.06L173.78-33.06Q173-33.06 172.36-32.92L172.36-32.92L172.36-32.92Q171.72-32.78 171.25-32.41L171.25-32.41L171.25-32.41Q170.78-32.03 170.52-31.39L170.52-31.39L170.52-31.39Q170.25-30.75 170.22-29.75L170.22-29.75L170-22.97L170-22.97Q169.94-21.44 170.64-20.45L170.64-20.45L170.64-20.45Q171.34-19.47 172.97-18.94L172.97-18.94L180.84-16.13L180.84-16.13Q182.44-15.56 183.47-14.91L183.47-14.91L183.47-14.91Q184.50-14.25 185.11-13.38L185.11-13.38L185.11-13.38Q185.72-12.50 185.94-11.39L185.94-11.39L185.94-11.39Q186.16-10.28 186.09-8.78L186.09-8.78L186.03-7.34L186.03-7.34Q185.94-5.19 184.92-3.72L184.92-3.72L184.92-3.72Q183.91-2.25 182.23-1.33L182.23-1.33L182.23-1.33Q180.56-0.41 178.42-0.02L178.42-0.02L178.42-0.02Q176.28 0.38 173.94 0.38L173.94 0.38L173.94 0.38Q171.66 0.38 169.36 0.02L169.36 0.02L169.36 0.02Q167.06-0.34 165.22-1.27L165.22-1.27L165.22-1.27Q163.38-2.19 162.22-3.77L162.22-3.77L162.22-3.77Q161.06-5.34 161.06-7.81L161.06-7.81ZM195.97-1.78L195.31-28.94L193.56-28.94L193.56-28.94Q192.75-28.94 192.30-29.06L192.30-29.06L192.30-29.06Q191.84-29.19 191.63-29.53L191.63-29.53L191.63-29.53Q191.41-29.88 191.36-30.48L191.36-30.48L191.36-30.48Q191.31-31.09 191.31-32.06L191.31-32.06L191.31-32.06Q191.31-32.94 191.36-33.48L191.36-33.48L191.36-33.48Q191.41-34.03 191.63-34.34L191.63-34.34L191.63-34.34Q191.84-34.66 192.30-34.77L192.30-34.77L192.30-34.77Q192.75-34.88 193.56-34.88L193.56-34.88L195.16-34.88L194.97-43.59L194.97-43.59Q194.97-44.25 195.11-44.70L195.11-44.70L195.11-44.70Q195.25-45.16 195.78-45.41L195.78-45.41L195.78-45.41Q196.31-45.66 197.33-45.77L197.33-45.77L197.33-45.77Q198.34-45.88 200.03-45.88L200.03-45.88L200.03-45.88Q201.72-45.88 202.73-45.77L202.73-45.77L202.73-45.77Q203.75-45.66 204.28-45.41L204.28-45.41L204.28-45.41Q204.81-45.16 204.95-44.70L204.95-44.70L204.95-44.70Q205.09-44.25 205.09-43.59L205.09-43.59L204.88-34.88L206.50-34.88L206.50-34.88Q207.31-34.88 207.77-34.77L207.77-34.77L207.77-34.77Q208.22-34.66 208.44-34.34L208.44-34.34L208.44-34.34Q208.66-34.03 208.70-33.48L208.70-33.48L208.70-33.48Q208.75-32.94 208.75-32.06L208.75-32.06L208.75-32.06Q208.75-31.09 208.70-30.48L208.70-30.48L208.70-30.48Q208.66-29.88 208.44-29.53L208.44-29.53L208.44-29.53Q208.22-29.19 207.77-29.06L207.77-29.06L207.77-29.06Q207.31-28.94 206.50-28.94L206.50-28.94L204.75-28.94L204.13-1.78L204.13-1.78Q204.13-1.19 203.97-0.84L203.97-0.84L203.97-0.84Q203.81-0.50 203.38-0.31L203.38-0.31L203.38-0.31Q202.94-0.13 202.14-0.06L202.14-0.06L202.14-0.06Q201.34 0 200.03 0L200.03 0L200.03 0Q198.72 0 197.92-0.06L197.92-0.06L197.92-0.06Q197.13-0.13 196.70-0.31L196.70-0.31L196.70-0.31Q196.28-0.50 196.13-0.84L196.13-0.84L196.13-0.84Q195.97-1.19 195.97-1.78L195.97-1.78Z" fill="#f0f5f6"></path></g></g><style>text {
  font-size: 64px;
  font-family: Arial Black;
  dominant-baseline: central;
  text-anchor: middle;
}</style></svg>