<svg width="199.36099853515626px" height="89.01201171875px" xmlns="http://www.w3.org/2000/svg" viewBox="150.3195007324219 30.493994140625 199.36099853515626 89.01201171875" style="background: rgb(40, 41, 47);" preserveAspectRatio="xMidYMid"><defs><filter id="editing-extrusion" x="-100%" y="-100%" width="300%" height="300%"><feFlood result="color1" flood-color="#ffffff"></feFlood><feConvolveMatrix order="8,8" divisor="1" kernelMatrix="1 0 0 0 0 0 0 0 0 1 0 0 0 0 0 0 0 0 1 0 0 0 0 0 0 0 0 1 0 0 0 0 0 0 0 0 1 0 0 0 0 0 0 0 0 1 0 0 0 0 0 0 0 0 1 0 0 0 0 0 0 0 0 1" in="SourceAlpha" result="extrude"></feConvolveMatrix><feComposite in="color1" in2="extrude" result="comp-extrude" operator="in"></feComposite><feOffset dx="4" dy="4" in="comp-extrude" result="offset-extrude"></feOffset><feMerge><feMergeNode in="offset-extrude"></feMergeNode><feMergeNode in="SourceGraphic"></feMergeNode></feMerge></filter></defs><g filter="url(#editing-extrusion)"><g transform="translate(145.25335907936096, 108.50500106811523)"><path d="M3.72-10L3.16-27.59L3.16-27.59Q3.09-29.84 3.75-31.75L3.75-31.75L3.75-31.75Q4.41-33.66 5.67-35.03L5.67-35.03L5.67-35.03Q6.94-36.41 8.72-37.17L8.72-37.17L8.72-37.17Q10.50-37.94 12.69-37.94L12.69-37.94L12.69-37.94Q14-37.94 15.11-37.59L15.11-37.59L15.11-37.59Q16.22-37.25 17.16-36.73L17.16-36.73L17.16-36.73Q18.09-36.22 18.83-35.61L18.83-35.61L18.83-35.61Q19.56-35 20.09-34.44L20.09-34.44L20.09-35.28L20.09-35.28Q20.09-35.94 20.23-36.39L20.23-36.39L20.23-36.39Q20.38-36.84 20.89-37.09L20.89-37.09L20.89-37.09Q21.41-37.34 22.36-37.45L22.36-37.45L22.36-37.45Q23.31-37.56 24.91-37.56L24.91-37.56L24.91-37.56Q26.50-37.56 27.45-37.45L27.45-37.45L27.45-37.45Q28.41-37.34 28.89-37.09L28.89-37.09L28.89-37.09Q29.38-36.84 29.52-36.39L29.52-36.39L29.52-36.39Q29.66-35.94 29.66-35.28L29.66-35.28L28.84 4.09L28.84 4.09Q28.78 6.66 27.86 8.39L27.86 8.39L27.86 8.39Q26.94 10.13 25.27 11.17L25.27 11.17L25.27 11.17Q23.59 12.22 21.22 12.67L21.22 12.67L21.22 12.67Q18.84 13.13 15.88 13.13L15.88 13.13L15.88 13.13Q13.69 13.13 12.41 13.02L12.41 13.02L12.41 13.02Q11.13 12.91 10.31 12.75L10.31 12.75L10.31 12.75Q9.94 12.69 9.70 12.55L9.70 12.55L9.70 12.55Q9.47 12.41 9.36 12.13L9.36 12.13L9.36 12.13Q9.25 11.84 9.20 11.36L9.20 11.36L9.20 11.36Q9.16 10.88 9.16 10.13L9.16 10.13L9.16 10.13Q9.16 8.53 9.38 7.89L9.38 7.89L9.38 7.89Q9.59 7.25 10.31 7.31L10.31 7.31L10.31 7.31Q11.06 7.38 12.23 7.52L12.23 7.52L12.23 7.52Q13.41 7.66 15.47 7.66L15.47 7.66L15.47 7.66Q16.81 7.66 17.78 7.44L17.78 7.44L17.78 7.44Q18.75 7.22 19.34 6.72L19.34 6.72L19.34 6.72Q19.94 6.22 20.19 5.39L20.19 5.39L20.19 5.39Q20.44 4.56 20.41 3.38L20.41 3.38L20.25-2.28L20.25-2.28Q18.94-1.25 17.05-0.44L17.05-0.44L17.05-0.44Q15.16 0.38 12.66 0.38L12.66 0.38L12.66 0.38Q10.63 0.38 9.02-0.19L9.02-0.19L9.02-0.19Q7.41-0.75 6.27-1.98L6.27-1.98L6.27-1.98Q5.13-3.22 4.47-5.20L4.47-5.20L4.47-5.20Q3.81-7.19 3.72-10L3.72-10ZM12.81-27.59L12.34-10L12.34-10Q12.28-7.69 13.42-6.45L13.42-6.45L13.42-6.45Q14.56-5.22 16.56-5.22L16.56-5.22L16.56-5.22Q17.66-5.22 18.56-5.56L18.56-5.56L18.56-5.56Q19.47-5.91 20.16-6.41L20.16-6.41L19.59-30.34L19.59-30.34Q18.88-30.81 18.03-31.14L18.03-31.14L18.03-31.14Q17.19-31.47 16.34-31.47L16.34-31.47L16.34-31.47Q15.66-31.47 15.03-31.27L15.03-31.27L15.03-31.27Q14.41-31.06 13.92-30.61L13.92-30.61L13.92-30.61Q13.44-30.16 13.14-29.41L13.14-29.41L13.14-29.41Q12.84-28.66 12.81-27.59L12.81-27.59ZM37.31-8.38L36.53-35.28L36.53-35.28Q36.53-35.94 36.67-36.39L36.67-36.39L36.67-36.39Q36.81-36.84 37.34-37.09L37.34-37.09L37.34-37.09Q37.88-37.34 38.89-37.45L38.89-37.45L38.89-37.45Q39.91-37.56 41.59-37.56L41.59-37.56L41.59-37.56Q43.28-37.56 44.30-37.45L44.30-37.45L44.30-37.45Q45.31-37.34 45.84-37.09L45.84-37.09L45.84-37.09Q46.38-36.84 46.52-36.39L46.52-36.39L46.52-36.39Q46.66-35.94 46.66-35.28L46.66-35.28L45.94-9.78L45.94-9.78Q45.91-8.41 46.25-7.53L46.25-7.53L46.25-7.53Q46.59-6.66 47.17-6.14L47.17-6.14L47.17-6.14Q47.75-5.63 48.47-5.42L48.47-5.42L48.47-5.42Q49.19-5.22 49.94-5.22L49.94-5.22L49.94-5.22Q51.28-5.22 52.34-5.80L52.34-5.80L52.34-5.80Q53.41-6.38 54.22-7.09L54.22-7.09L53.41-35.28L53.41-35.28Q53.41-35.94 53.55-36.39L53.55-36.39L53.55-36.39Q53.69-36.84 54.22-37.09L54.22-37.09L54.22-37.09Q54.75-37.34 55.77-37.45L55.77-37.45L55.77-37.45Q56.78-37.56 58.47-37.56L58.47-37.56L58.47-37.56Q60.16-37.56 61.17-37.45L61.17-37.45L61.17-37.45Q62.19-37.34 62.72-37.09L62.72-37.09L62.72-37.09Q63.25-36.84 63.39-36.39L63.39-36.39L63.39-36.39Q63.53-35.94 63.53-35.28L63.53-35.28L62.56-1.78L62.56-1.78Q62.56-1.19 62.41-0.84L62.41-0.84L62.41-0.84Q62.25-0.50 61.81-0.31L61.81-0.31L61.81-0.31Q61.38-0.13 60.58-0.06L60.58-0.06L60.58-0.06Q59.78 0 58.47 0L58.47 0L58.47 0Q57.25 0 56.52-0.06L56.52-0.06L56.52-0.06Q55.78-0.13 55.39-0.31L55.39-0.31L55.39-0.31Q55-0.50 54.86-0.84L54.86-0.84L54.86-0.84Q54.72-1.19 54.72-1.78L54.72-1.78L54.66-3.25L54.66-3.25Q53.97-2.63 53.09-1.97L53.09-1.97L53.09-1.97Q52.22-1.31 51.11-0.80L51.11-0.80L51.11-0.80Q50-0.28 48.67 0.05L48.67 0.05L48.67 0.05Q47.34 0.38 45.75 0.38L45.75 0.38L45.75 0.38Q41.88 0.38 39.66-1.84L39.66-1.84L39.66-1.84Q37.44-4.06 37.31-8.38L37.31-8.38ZM72.41-1.78L71.41-51.59L71.41-51.59Q71.41-52.25 71.55-52.70L71.55-52.70L71.55-52.70Q71.69-53.16 72.22-53.41L72.22-53.41L72.22-53.41Q72.75-53.66 73.77-53.77L73.77-53.77L73.77-53.77Q74.78-53.88 76.47-53.88L76.47-53.88L76.47-53.88Q78.16-53.88 79.17-53.77L79.17-53.77L79.17-53.77Q80.19-53.66 80.72-53.41L80.72-53.41L80.72-53.41Q81.25-53.16 81.39-52.70L81.39-52.70L81.39-52.70Q81.53-52.25 81.53-51.59L81.53-51.59L81.19-34.38L81.19-34.38Q81.72-34.94 82.45-35.58L82.45-35.58L82.45-35.58Q83.19-36.22 84.13-36.73L84.13-36.73L84.13-36.73Q85.06-37.25 86.20-37.59L86.20-37.59L86.20-37.59Q87.34-37.94 88.69-37.94L88.69-37.94L88.69-37.94Q90.88-37.94 92.66-37.17L92.66-37.17L92.66-37.17Q94.44-36.41 95.70-35.03L95.70-35.03L95.70-35.03Q96.97-33.66 97.63-31.75L97.63-31.75L97.63-31.75Q98.28-29.84 98.22-27.59L98.22-27.59L97.66-10L97.66-10Q97.56-7.19 96.91-5.20L96.91-5.20L96.91-5.20Q96.25-3.22 95.11-1.98L95.11-1.98L95.11-1.98Q93.97-0.75 92.34-0.19L92.34-0.19L92.34-0.19Q90.72 0.38 88.72 0.38L88.72 0.38L88.72 0.38Q87.25 0.38 86 0.08L86 0.08L86 0.08Q84.75-0.22 83.69-0.70L83.69-0.70L83.69-0.70Q82.63-1.19 81.77-1.78L81.77-1.78L81.77-1.78Q80.91-2.38 80.25-2.97L80.25-2.97L80.25-1.78L80.25-1.78Q80.25-1.19 80.11-0.84L80.11-0.84L80.11-0.84Q79.97-0.50 79.56-0.31L79.56-0.31L79.56-0.31Q79.16-0.13 78.42-0.06L78.42-0.06L78.42-0.06Q77.69 0 76.47 0L76.47 0L76.47 0Q75.16 0 74.36-0.06L74.36-0.06L74.36-0.06Q73.56-0.13 73.14-0.31L73.14-0.31L73.14-0.31Q72.72-0.50 72.56-0.84L72.56-0.84L72.56-0.84Q72.41-1.19 72.41-1.78L72.41-1.78ZM81.13-29.84L80.69-6.81L80.69-6.81Q81.41-6.19 82.45-5.70L82.45-5.70L82.45-5.70Q83.50-5.22 84.81-5.22L84.81-5.22L84.81-5.22Q86.81-5.22 87.95-6.45L87.95-6.45L87.95-6.45Q89.09-7.69 89.03-10L89.03-10L88.56-27.59L88.56-27.59Q88.53-28.66 88.23-29.41L88.23-29.41L88.23-29.41Q87.94-30.16 87.45-30.61L87.45-30.61L87.45-30.61Q86.97-31.06 86.34-31.27L86.34-31.27L86.34-31.27Q85.72-31.47 85.03-31.47L85.03-31.47L85.03-31.47Q83.94-31.47 82.89-30.97L82.89-30.97L82.89-30.97Q81.84-30.47 81.13-29.84L81.13-29.84ZM106.75-1.78L106.19-28.94L105.13-28.94L105.13-28.94Q104.31-28.94 103.86-29.06L103.86-29.06L103.86-29.06Q103.41-29.19 103.19-29.53L103.19-29.53L103.19-29.53Q102.97-29.88 102.92-30.48L102.92-30.48L102.92-30.48Q102.88-31.09 102.88-32.06L102.88-32.06L102.88-32.06Q102.88-32.94 102.92-33.48L102.92-33.48L102.92-33.48Q102.97-34.03 103.19-34.34L103.19-34.34L103.19-34.34Q103.41-34.66 103.86-34.77L103.86-34.77L103.86-34.77Q104.31-34.88 105.13-34.88L105.13-34.88L106.06-34.88L105.91-43.25L105.91-43.25Q105.88-45.28 106.44-47.19L106.44-47.19L106.44-47.19Q107-49.09 108.17-50.58L108.17-50.58L108.17-50.58Q109.34-52.06 111.16-52.97L111.16-52.97L111.16-52.97Q112.97-53.88 115.44-53.88L115.44-53.88L119.56-53.88L119.56-53.88Q120.38-53.88 120.83-53.77L120.83-53.77L120.83-53.77Q121.28-53.66 121.50-53.34L121.50-53.34L121.50-53.34Q121.72-53.03 121.77-52.48L121.77-52.48L121.77-52.48Q121.81-51.94 121.81-51.06L121.81-51.06L121.81-51.06Q121.81-50.28 121.78-49.73L121.78-49.73L121.78-49.73Q121.75-49.19 121.58-48.86L121.58-48.86L121.58-48.86Q121.41-48.53 121.06-48.39L121.06-48.39L121.06-48.39Q120.72-48.25 120.13-48.25L120.13-48.25L118.88-48.25L118.88-48.25Q118.41-48.25 117.88-48.08L117.88-48.08L117.88-48.08Q117.34-47.91 116.88-47.45L116.88-47.45L116.88-47.45Q116.41-47 116.09-46.20L116.09-46.20L116.09-46.20Q115.78-45.41 115.75-44.16L115.75-44.16L115.56-34.88L118.06-34.88L118.06-34.88Q118.88-34.88 119.33-34.77L119.33-34.77L119.33-34.77Q119.78-34.66 120-34.34L120-34.34L120-34.34Q120.22-34.03 120.27-33.48L120.27-33.48L120.27-33.48Q120.31-32.94 120.31-32.06L120.31-32.06L120.31-32.06Q120.31-31.09 120.27-30.48L120.27-30.48L120.27-30.48Q120.22-29.88 120-29.53L120-29.53L120-29.53Q119.78-29.19 119.33-29.06L119.33-29.06L119.33-29.06Q118.88-28.94 118.06-28.94L118.06-28.94L115.44-28.94L114.91-1.78L114.91-1.78Q114.91-1.19 114.75-0.84L114.75-0.84L114.75-0.84Q114.59-0.50 114.16-0.31L114.16-0.31L114.16-0.31Q113.72-0.13 112.92-0.06L112.92-0.06L112.92-0.06Q112.13 0 110.81 0L110.81 0L110.81 0Q109.50 0 108.70-0.06L108.70-0.06L108.70-0.06Q107.91-0.13 107.48-0.31L107.48-0.31L107.48-0.31Q107.06-0.50 106.91-0.84L106.91-0.84L106.91-0.84Q106.75-1.19 106.75-1.78L106.75-1.78ZM125.72-8.63L125-28.44L125-28.44Q124.91-30.94 126.05-32.73L126.05-32.73L126.05-32.73Q127.19-34.53 129.11-35.69L129.11-35.69L129.11-35.69Q131.03-36.84 133.52-37.39L133.52-37.39L133.52-37.39Q136-37.94 138.59-37.94L138.59-37.94L138.59-37.94Q141.06-37.94 143.44-37.39L143.44-37.39L143.44-37.39Q145.81-36.84 147.66-35.69L147.66-35.69L147.66-35.69Q149.50-34.53 150.58-32.73L150.58-32.73L150.58-32.73Q151.66-30.94 151.56-28.44L151.56-28.44L151.09-16.91L151.09-16.91Q151.06-16.31 150.89-15.97L150.89-15.97L150.89-15.97Q150.72-15.63 150.25-15.44L150.25-15.44L150.25-15.44Q149.78-15.25 148.92-15.19L148.92-15.19L148.92-15.19Q148.06-15.13 146.66-15.13L146.66-15.13L134.47-15.13L134.28-8.38L134.28-8.38Q134.25-7.19 134.52-6.38L134.52-6.38L134.52-6.38Q134.78-5.56 135.31-5.06L135.31-5.06L135.31-5.06Q135.84-4.56 136.63-4.34L136.63-4.34L136.63-4.34Q137.41-4.13 138.41-4.13L138.41-4.13L138.41-4.13Q140.41-4.13 141.34-5L141.34-5L141.34-5Q142.28-5.88 142.28-8.09L142.28-8.09L142.28-9.06L142.28-9.06Q142.28-9.66 142.44-10.05L142.44-10.05L142.44-10.05Q142.59-10.44 143.05-10.67L143.05-10.67L143.05-10.67Q143.50-10.91 144.34-11L144.34-11L144.34-11Q145.19-11.09 146.59-11.09L146.59-11.09L146.59-11.09Q147.97-11.09 148.81-11L148.81-11L148.81-11Q149.66-10.91 150.11-10.67L150.11-10.67L150.11-10.67Q150.56-10.44 150.70-10.06L150.70-10.06L150.70-10.06Q150.84-9.69 150.84-9.09L150.84-9.09L150.84-7.72L150.84-7.72Q150.84-5.25 149.78-3.69L149.78-3.69L149.78-3.69Q148.72-2.13 146.98-1.22L146.98-1.22L146.98-1.22Q145.25-0.31 143.02 0.03L143.02 0.03L143.02 0.03Q140.78 0.38 138.44 0.38L138.44 0.38L138.44 0.38Q136.06 0.38 133.81-0.08L133.81-0.08L133.81-0.08Q131.56-0.53 129.80-1.58L129.80-1.58L129.80-1.58Q128.03-2.63 126.92-4.34L126.92-4.34L126.92-4.34Q125.81-6.06 125.72-8.63L125.72-8.63ZM134.63-19.81L142.28-19.81L141.97-28.97L141.97-28.97Q141.94-30.28 141.67-31.09L141.67-31.09L141.67-31.09Q141.41-31.91 140.95-32.34L140.95-32.34L140.95-32.34Q140.50-32.78 139.89-32.92L139.89-32.92L139.89-32.92Q139.28-33.06 138.59-33.06L138.59-33.06L138.59-33.06Q137.81-33.06 137.16-32.92L137.16-32.92L137.16-32.92Q136.50-32.78 136.02-32.34L136.02-32.34L136.02-32.34Q135.53-31.91 135.23-31.09L135.23-31.09L135.23-31.09Q134.94-30.28 134.91-28.97L134.91-28.97L134.63-19.81ZM158.66-7.81L158.66-9.09L158.66-9.09Q158.66-9.69 158.81-10.06L158.81-10.06L158.81-10.06Q158.97-10.44 159.42-10.67L159.42-10.67L159.42-10.67Q159.88-10.91 160.72-11L160.72-11L160.72-11Q161.56-11.09 162.94-11.09L162.94-11.09L162.94-11.09Q164.34-11.09 165.19-11L165.19-11L165.19-11Q166.03-10.91 166.48-10.67L166.48-10.67L166.48-10.67Q166.94-10.44 167.09-10.05L167.09-10.05L167.09-10.05Q167.25-9.66 167.25-9.06L167.25-9.06L167.25-7.53L167.25-7.53Q167.25-5.63 168.36-4.88L168.36-4.88L168.36-4.88Q169.47-4.13 171.50-4.13L171.50-4.13L171.50-4.13Q173.53-4.13 174.33-4.98L174.33-4.98L174.33-4.98Q175.13-5.84 175.13-7.84L175.13-7.84L175.13-9.38L175.13-9.38Q175.13-10.16 174.92-10.72L174.92-10.72L174.92-10.72Q174.72-11.28 174.31-11.70L174.31-11.70L174.31-11.70Q173.91-12.13 173.27-12.44L173.27-12.44L173.27-12.44Q172.63-12.75 171.78-13.03L171.78-13.03L162.53-16.28L162.53-16.28Q160.31-17.06 159.23-18.84L159.23-18.84L159.23-18.84Q158.16-20.63 158.06-23.22L158.06-23.22L157.88-28.69L157.88-28.69Q157.78-31.19 158.91-32.94L158.91-32.94L158.91-32.94Q160.03-34.69 161.94-35.80L161.94-35.80L161.94-35.80Q163.84-36.91 166.31-37.42L166.31-37.42L166.31-37.42Q168.78-37.94 171.38-37.94L171.38-37.94L171.38-37.94Q173.91-37.94 176.31-37.50L176.31-37.50L176.31-37.50Q178.72-37.06 180.58-36.05L180.58-36.05L180.58-36.05Q182.44-35.03 183.52-33.36L183.52-33.36L183.52-33.36Q184.59-31.69 184.50-29.19L184.50-29.19L184.25-22.63L184.25-22.63Q184.22-22.03 184.05-21.69L184.05-21.69L184.05-21.69Q183.88-21.34 183.41-21.16L183.41-21.16L183.41-21.16Q182.94-20.97 182.08-20.91L182.08-20.91L182.08-20.91Q181.22-20.84 179.81-20.84L179.81-20.84L179.81-20.84Q178.28-20.84 177.36-20.91L177.36-20.91L177.36-20.91Q176.44-20.97 175.94-21.16L175.94-21.16L175.94-21.16Q175.44-21.34 175.27-21.69L175.27-21.69L175.27-21.69Q175.09-22.03 175.09-22.63L175.09-22.63L174.88-29.72L174.88-29.72Q174.84-30.75 174.58-31.41L174.58-31.41L174.58-31.41Q174.31-32.06 173.86-32.44L173.86-32.44L173.86-32.44Q173.41-32.81 172.78-32.94L172.78-32.94L172.78-32.94Q172.16-33.06 171.38-33.06L171.38-33.06L171.38-33.06Q170.59-33.06 169.95-32.92L169.95-32.92L169.95-32.92Q169.31-32.78 168.84-32.41L168.84-32.41L168.84-32.41Q168.38-32.03 168.11-31.39L168.11-31.39L168.11-31.39Q167.84-30.75 167.81-29.75L167.81-29.75L167.59-22.97L167.59-22.97Q167.53-21.44 168.23-20.45L168.23-20.45L168.23-20.45Q168.94-19.47 170.56-18.94L170.56-18.94L178.44-16.13L178.44-16.13Q180.03-15.56 181.06-14.91L181.06-14.91L181.06-14.91Q182.09-14.25 182.70-13.38L182.70-13.38L182.70-13.38Q183.31-12.50 183.53-11.39L183.53-11.39L183.53-11.39Q183.75-10.28 183.69-8.78L183.69-8.78L183.63-7.34L183.63-7.34Q183.53-5.19 182.52-3.72L182.52-3.72L182.52-3.72Q181.50-2.25 179.83-1.33L179.83-1.33L179.83-1.33Q178.16-0.41 176.02-0.02L176.02-0.02L176.02-0.02Q173.88 0.38 171.53 0.38L171.53 0.38L171.53 0.38Q169.25 0.38 166.95 0.02L166.95 0.02L166.95 0.02Q164.66-0.34 162.81-1.27L162.81-1.27L162.81-1.27Q160.97-2.19 159.81-3.77L159.81-3.77L159.81-3.77Q158.66-5.34 158.66-7.81L158.66-7.81ZM193.56-1.78L192.91-28.94L191.16-28.94L191.16-28.94Q190.34-28.94 189.89-29.06L189.89-29.06L189.89-29.06Q189.44-29.19 189.22-29.53L189.22-29.53L189.22-29.53Q189-29.88 188.95-30.48L188.95-30.48L188.95-30.48Q188.91-31.09 188.91-32.06L188.91-32.06L188.91-32.06Q188.91-32.94 188.95-33.48L188.95-33.48L188.95-33.48Q189-34.03 189.22-34.34L189.22-34.34L189.22-34.34Q189.44-34.66 189.89-34.77L189.89-34.77L189.89-34.77Q190.34-34.88 191.16-34.88L191.16-34.88L192.75-34.88L192.56-43.59L192.56-43.59Q192.56-44.25 192.70-44.70L192.70-44.70L192.70-44.70Q192.84-45.16 193.38-45.41L193.38-45.41L193.38-45.41Q193.91-45.66 194.92-45.77L194.92-45.77L194.92-45.77Q195.94-45.88 197.63-45.88L197.63-45.88L197.63-45.88Q199.31-45.88 200.33-45.77L200.33-45.77L200.33-45.77Q201.34-45.66 201.88-45.41L201.88-45.41L201.88-45.41Q202.41-45.16 202.55-44.70L202.55-44.70L202.55-44.70Q202.69-44.25 202.69-43.59L202.69-43.59L202.47-34.88L204.09-34.88L204.09-34.88Q204.91-34.88 205.36-34.77L205.36-34.77L205.36-34.77Q205.81-34.66 206.03-34.34L206.03-34.34L206.03-34.34Q206.25-34.03 206.30-33.48L206.30-33.48L206.30-33.48Q206.34-32.94 206.34-32.06L206.34-32.06L206.34-32.06Q206.34-31.09 206.30-30.48L206.30-30.48L206.30-30.48Q206.25-29.88 206.03-29.53L206.03-29.53L206.03-29.53Q205.81-29.19 205.36-29.06L205.36-29.06L205.36-29.06Q204.91-28.94 204.09-28.94L204.09-28.94L202.34-28.94L201.72-1.78L201.72-1.78Q201.72-1.19 201.56-0.84L201.56-0.84L201.56-0.84Q201.41-0.50 200.97-0.31L200.97-0.31L200.97-0.31Q200.53-0.13 199.73-0.06L199.73-0.06L199.73-0.06Q198.94 0 197.63 0L197.63 0L197.63 0Q196.31 0 195.52-0.06L195.52-0.06L195.52-0.06Q194.72-0.13 194.30-0.31L194.30-0.31L194.30-0.31Q193.88-0.50 193.72-0.84L193.72-0.84L193.72-0.84Q193.56-1.19 193.56-1.78L193.56-1.78Z" fill="#0a0a0a"></path></g></g><style>text {
  font-size: 64px;
  font-family: Arial Black;
  dominant-baseline: central;
  text-anchor: middle;
}</style></svg>